<svg xmlns="http://www.w3.org/2000/svg" xmlns:svg="http://www.w3.org/2000/svg" xmlns:xlink="http://www.w3.org/1999/xlink" id="svg8" width="600" height="600" version="1.1" viewBox="0 0 158.75 158.75"><metadata id="metadata5"/><g id="layer1" transform="translate(0,-138.24998)"><image xlink:href="ghidra_logo_round_white.png" style="display:inline" id="image1466" width="158.75" height="158.75" x="-.094" y="138.192" preserveAspectRatio="none"/><g id="g1732" transform="matrix(1.0796028,0,0,1.0796028,-3.1745108,-15.551248)"><g id="g1679" transform="matrix(1.4753052,0,0,1.4753052,-25.793175,-88.583169)"><path id="path3023" d="m 218.26172,161.11914 c 4e-4,-0.39812 -74.51603,37.16081 -74.50977,37.35742 0.0106,0.33456 74.41016,37.06641 74.41016,37.06641 z m 75.33789,0.0684 c -1.17672,0.41039 -74.33132,37.11247 -74.31641,37.28516 0.029,0.33232 74.0656,37.20501 74.39844,37.05273 l -0.0527,-47.7832 h 159.3027 V 161.1875 Z m 159.33203,26.55469 v 26.55469 h 53.11133 v -26.55469 z m -346.14258,-25.81836 -0.30859,15.26367 c -0.16934,0 -0.9053,-0.99717 -1.63477,-2.2168 -1.81434,-3.03337 -6.170495,-7.30954 -9.312497,-9.14258 -6.405715,-3.73706 -15.111441,-4.64697 -22.064453,-2.30468 -8.034836,2.70673 -12.623824,10.0357 -11.367188,18.15429 0.959383,6.19813 5.041017,11.68024 10.105469,13.57422 7.197752,2.6918 15.182123,1.41051 19.738281,-3.16601 4.503193,-4.52333 5.222576,-7.6923 4.279297,-18.86133 -0.121221,-1.43514 1.051292,-2.01085 2.425782,-1.18945 1.647139,0.98432 4.381479,5.20379 5.298829,8.17382 1.42434,4.61154 1.63476,8.56232 1.63476,30.8125 v 21.60157 H 94.335938 v 3.21484 h 56.640622 v -3.21484 h -8.03515 v -65.87891 h 4.01757 4.01758 v -1.54297 -1.54297 l -10.14258,-0.26758 c -5.57868,-0.1472 -14.30123,-0.53396 -19.38281,-0.85742 -5.08157,-0.3234 -10.45984,-0.59146 -11.95117,-0.59765 z" transform="matrix(0.17934142,0,0,0.17934142,17.483281,153.75337)" style="fill:#000;stroke-width:.40170553"/></g><g id="g1722"><g id="g1704" transform="translate(-0.37935781,-0.36261111)"><rect style="fill:#fff;fill-opacity:1;stroke:none;stroke-width:6.83040905;stroke-miterlimit:4;stroke-dasharray:none;stroke-opacity:1" id="rect1694" width="4.762" height="2.335" x="71.203" y="193.302"/><rect id="rect1700" width="4.762" height="2.335" x="66.441" y="190.966" style="fill:#fff;fill-opacity:1;stroke:none;stroke-width:6.83040905;stroke-miterlimit:4;stroke-dasharray:none;stroke-opacity:1"/></g><g id="g1710" transform="translate(-20.360561,-0.35775861)"><path style="fill:#fff;fill-opacity:1;stroke:none;stroke-width:25.8157196;stroke-miterlimit:4;stroke-dasharray:none;stroke-opacity:1" id="rect1706" d="m 182.14258,217.73438 v 8.82617 h 18 v -8.82617 z m 18,8.82617 v 8.82617 h 18 v -8.82617 z" transform="matrix(0.26458333,0,0,0.26458333,18.249061,133.35741)"/></g></g></g></g></svg>